<?xml version="1.0" standalone="no"?>
<!DOCTYPE svg PUBLIC "-//W3C//DTD SVG 20010904//EN"
 "http://www.w3.org/TR/2001/REC-SVG-20010904/DTD/svg10.dtd">
<svg version="1.0" xmlns="http://www.w3.org/2000/svg"
 width="1133.000000pt" height="1280.000000pt" viewBox="0 0 1133.000000 1280.000000"
 preserveAspectRatio="xMidYMid meet">
<g transform="translate(0.000000,1280.000000) scale(0.100000,-0.100000)"
fill="#000000" stroke="none">
<path d="M5660 12746 c0 -11 40 -86 45 -86 3 0 -4 19 -16 43 -23 45 -29 54
-29 43z"/>
<path d="M5619 12589 c-23 -46 -75 -149 -116 -229 -161 -312 -255 -495 -376
-730 -342 -669 -419 -817 -437 -835 -28 -28 -25 -5 5 40 14 20 24 42 22 49 -2
6 -12 -5 -22 -24 -27 -53 -68 -99 -117 -131 -25 -17 -36 -29 -26 -29 9 0 19 4
22 9 3 5 15 11 26 14 35 9 3 -21 -44 -42 -130 -59 -250 -29 -541 131 -44 25
-120 66 -170 93 -49 27 -103 56 -120 65 -163 91 -203 110 -200 93 2 -10 8 -45
14 -78 21 -120 52 -293 72 -400 11 -60 25 -137 30 -170 6 -33 14 -80 19 -105
5 -25 13 -72 19 -105 22 -126 52 -292 61 -335 5 -25 13 -72 19 -105 5 -33 19
-112 31 -175 12 -63 26 -142 31 -175 6 -33 14 -80 19 -105 5 -25 14 -74 20
-110 6 -36 15 -85 20 -110 5 -25 14 -74 20 -110 6 -36 15 -85 20 -110 5 -25
13 -72 19 -105 6 -33 20 -111 31 -172 11 -62 29 -164 40 -225 11 -62 25 -138
31 -168 6 -30 9 -77 7 -105 l-3 -50 -12 35 c-10 33 -11 30 -11 -40 0 -70 1
-73 11 -40 l12 35 3 -51 c3 -58 -27 -151 -58 -179 -23 -21 -25 -11 -5 25 26
46 15 44 -14 -2 -17 -26 -42 -54 -58 -63 -26 -15 -17 -14 25 2 15 6 15 5 3
-11 -50 -60 -209 -63 -282 -4 l-24 20 28 -6 c15 -4 27 -5 27 -3 0 2 -22 18
-50 36 -31 20 -102 94 -192 199 -79 92 -152 178 -164 192 -46 53 -299 349
-368 430 -168 198 -494 580 -547 642 -55 64 -57 65 -64 41 -3 -14 -4 -28 0
-31 3 -3 5 2 5 11 0 10 5 17 10 17 6 0 10 -4 10 -9 0 -4 11 -20 25 -35 14 -16
33 -40 41 -54 11 -18 2 -12 -24 16 l-40 43 -12 -38 c-6 -21 -15 -54 -20 -73
-10 -36 -43 -159 -60 -220 -5 -19 -19 -69 -30 -110 -35 -130 -42 -154 -57
-203 -27 -87 -121 -184 -201 -207 -77 -21 -155 -10 -509 70 -107 25 -130 30
-160 35 -18 4 -33 11 -33 16 0 5 15 9 33 10 30 1 31 1 7 9 -43 14 -60 12 -53
-7 5 -14 1 -15 -32 -10 -41 7 -57 17 -37 24 15 6 6 23 -13 23 -9 0 -12 -6 -9
-15 4 -9 0 -15 -8 -15 -11 0 -283 59 -688 149 -25 5 -60 13 -78 16 -39 8 -42
25 -4 26 24 0 25 1 7 9 -11 5 -27 9 -36 9 -23 1 -18 -50 16 -174 15 -55 31
-116 35 -135 4 -19 17 -69 28 -110 12 -41 34 -127 51 -190 16 -63 39 -149 50
-190 11 -41 33 -127 50 -190 16 -63 39 -149 50 -190 73 -273 151 -582 151
-598 0 -12 -3 -12 -15 -2 -13 10 -15 9 -15 -9 0 -17 4 -21 19 -16 23 7 31 -17
31 -99 0 -71 -16 -130 -43 -153 -19 -18 -19 -17 -12 7 7 22 3 20 -31 -14 -21
-21 -63 -50 -93 -64 -31 -14 -51 -27 -45 -29 6 -2 37 10 69 27 32 17 60 29 62
26 9 -9 -65 -49 -325 -176 l-272 -134 27 -29 c21 -22 23 -27 8 -19 -31 16 -71
62 -54 62 8 0 25 10 39 21 l25 20 -40 -19 c-22 -11 -46 -21 -53 -23 -8 -3 18
-31 64 -69 44 -36 155 -130 249 -210 93 -80 215 -184 271 -230 55 -47 248
-211 430 -365 181 -154 337 -286 347 -294 32 -25 17 0 -20 34 -21 19 -33 35
-28 35 6 0 35 -22 65 -49 44 -40 50 -49 30 -44 -31 7 -29 5 75 -81 44 -37 103
-86 130 -110 151 -130 636 -541 905 -769 85 -72 177 -154 204 -181 39 -41 47
-46 41 -26 -7 24 -7 25 13 7 11 -10 33 -46 48 -80 23 -50 29 -79 32 -152 3
-83 -1 -103 -43 -250 -48 -164 -58 -201 -74 -257 -5 -18 -30 -104 -55 -190
-25 -86 -46 -160 -46 -163 0 -3 9 -5 20 -5 22 0 27 -15 8 -23 -7 -3 1 -6 19
-6 17 -1 35 4 38 9 3 5 -1 10 -9 10 -9 0 -16 4 -16 9 0 5 30 12 68 16 37 4 94
11 127 16 90 13 118 12 111 -6 -4 -11 1 -15 19 -15 26 0 34 15 13 23 -24 8 -2
15 71 23 67 6 74 5 68 -10 -5 -12 0 -16 20 -16 22 0 24 2 13 15 -7 9 -11 18
-8 20 2 2 37 8 78 11 66 6 73 5 67 -9 -5 -13 -1 -17 15 -17 17 0 18 2 8 15 -7
9 -11 17 -9 19 10 11 149 18 149 8 0 -6 -6 -13 -12 -15 -7 -3 1 -6 19 -6 17
-1 35 4 38 9 3 6 -1 10 -9 10 -36 0 -13 18 30 24 79 10 107 8 100 -9 -4 -11 1
-15 19 -15 26 0 34 15 13 23 -24 8 -2 16 66 23 62 6 69 5 63 -9 -5 -13 -1 -17
18 -17 26 0 34 15 13 23 -24 8 -2 15 71 23 67 6 74 5 68 -10 -5 -12 0 -16 20
-16 22 0 24 2 13 15 -7 9 -11 18 -8 20 2 2 37 8 78 11 66 6 73 5 67 -9 -5 -13
-1 -17 15 -17 17 0 18 2 8 15 -7 9 -11 17 -9 19 2 3 37 8 78 12 67 6 74 5 68
-10 -5 -12 0 -16 18 -16 26 0 34 15 13 23 -25 9 -1 17 72 23 66 6 73 5 67 -9
-5 -13 -1 -17 18 -17 26 0 34 15 13 23 -24 8 -2 16 66 23 62 6 69 5 63 -9 -5
-13 -1 -17 18 -17 26 0 34 15 13 23 -24 8 -2 15 71 23 67 6 74 5 68 -10 -5
-12 -1 -16 18 -16 13 0 27 5 30 10 3 6 -1 10 -9 10 -9 0 -16 4 -16 9 0 5 30
12 68 16 37 4 94 11 127 16 90 13 118 12 111 -6 -4 -11 1 -15 19 -15 26 0 34
15 13 23 -27 9 3 19 64 19 66 0 120 -17 165 -52 30 -23 20 -26 -17 -5 -14 8
-32 14 -40 14 -8 0 2 -9 22 -19 20 -11 54 -37 74 -57 33 -34 36 -35 29 -13 -8
25 -8 25 14 6 11 -10 25 -34 30 -52 10 -36 9 -80 -39 -1224 -6 -129 -15 -347
-20 -485 -6 -137 -15 -351 -20 -475 -5 -124 -14 -349 -20 -500 -5 -151 -12
-294 -16 -317 l-5 -43 177 0 177 0 -6 68 c-4 37 -9 243 -13 457 -5 355 -4 388
10 371 15 -19 16 -18 16 20 -1 35 -2 37 -14 21 -8 -10 -17 -14 -20 -9 -11 18
-20 812 -8 812 5 0 13 -6 15 -12 3 -7 5 10 5 37 0 28 -2 41 -5 30 -9 -40 -14
-48 -22 -39 -8 8 -38 1040 -35 1214 0 36 7 77 14 90 l14 25 6 -25 c6 -24 7
-24 14 -3 6 20 70 83 112 111 17 11 16 12 -11 7 l-30 -6 25 20 c13 10 45 23
70 28 51 10 130 5 130 -8 0 -5 -4 -9 -10 -9 -5 0 -10 -4 -10 -10 0 -5 11 -10
25 -10 18 0 23 4 19 15 -7 18 21 19 111 6 33 -5 90 -12 128 -16 37 -4 67 -11
67 -16 0 -5 -7 -9 -16 -9 -8 0 -12 -4 -9 -10 3 -5 17 -10 30 -10 19 0 23 4 18
16 -6 15 1 16 68 10 73 -8 95 -15 72 -23 -22 -8 -14 -23 12 -23 19 0 23 4 18
17 -6 14 1 15 63 9 68 -7 90 -15 67 -23 -22 -8 -14 -23 12 -23 19 0 23 4 18
17 -6 14 1 15 67 9 73 -6 97 -14 73 -23 -22 -8 -14 -23 12 -23 18 0 23 4 18
16 -6 15 1 16 68 10 41 -4 76 -9 78 -12 2 -2 -2 -10 -9 -19 -10 -13 -9 -15 8
-15 16 0 20 4 15 17 -6 14 1 15 67 9 41 -3 76 -9 78 -11 3 -2 -1 -11 -8 -20
-11 -13 -9 -15 13 -15 20 0 25 4 20 16 -6 15 1 16 68 10 73 -8 95 -15 72 -23
-22 -8 -14 -23 12 -23 19 0 23 4 18 17 -6 14 1 15 63 9 68 -7 90 -15 67 -23
-22 -8 -14 -23 12 -23 18 0 23 4 19 15 -7 17 21 19 100 9 43 -6 66 -24 30 -24
-8 0 -12 -4 -9 -10 3 -5 21 -10 38 -9 18 0 26 3 20 6 -7 2 -13 9 -13 15 0 10
139 3 149 -8 2 -2 -2 -10 -9 -19 -10 -13 -9 -15 8 -15 16 0 20 4 15 17 -6 14
1 15 67 9 41 -3 76 -9 78 -11 3 -2 -1 -11 -8 -20 -11 -13 -9 -15 13 -15 20 0
25 4 20 16 -6 15 1 16 68 10 73 -8 95 -15 72 -23 -22 -8 -14 -23 12 -23 18 0
23 4 19 15 -7 18 21 19 111 6 33 -5 90 -12 128 -16 37 -4 67 -11 67 -16 0 -5
-7 -9 -16 -9 -8 0 -12 -4 -9 -10 3 -5 21 -10 38 -9 18 0 26 3 20 6 -20 8 -15
23 7 23 11 0 20 2 20 5 0 3 -21 77 -46 163 -47 162 -56 192 -73 252 -5 19 -30
107 -56 195 -42 147 -46 167 -43 250 3 73 9 102 32 152 15 34 37 70 48 80 20
18 20 17 13 -7 -6 -20 2 -15 41 26 27 27 119 109 204 181 269 228 754 639 905
769 28 24 86 73 130 110 104 86 106 88 75 81 -20 -5 -14 4 30 44 30 27 60 49
65 49 6 0 -7 -16 -28 -35 -37 -34 -52 -59 -20 -34 10 8 166 140 347 294 182
154 375 318 430 365 56 46 178 150 271 230 94 80 205 174 249 210 46 38 72 66
64 69 -7 2 -31 12 -53 23 l-40 19 25 -20 c14 -11 31 -21 39 -21 17 0 -23 -46
-54 -62 -15 -8 -13 -3 8 19 l27 29 -272 134 c-260 127 -334 167 -325 176 2 3
30 -9 62 -26 32 -17 63 -29 69 -27 6 2 -14 15 -45 29 -30 14 -72 43 -93 64
-34 34 -38 36 -31 14 7 -24 7 -25 -12 -7 -27 23 -43 82 -43 153 0 82 8 106 31
99 15 -5 19 -1 19 16 0 18 -2 19 -15 9 -12 -10 -15 -10 -15 2 0 16 78 325 151
598 11 41 34 127 50 190 17 63 39 149 50 190 11 41 34 127 50 190 17 63 39
149 51 190 11 41 24 91 28 110 4 19 20 80 35 135 34 124 39 175 16 174 -9 0
-25 -4 -36 -9 -18 -8 -17 -9 8 -9 37 -1 34 -18 -5 -26 -18 -3 -53 -11 -78 -16
-405 -90 -677 -149 -688 -149 -8 0 -12 6 -8 15 3 9 0 15 -9 15 -19 0 -28 -17
-13 -23 20 -7 4 -17 -37 -24 -33 -5 -37 -4 -32 10 7 19 -10 21 -53 7 -24 -8
-23 -8 8 -9 41 -1 41 -18 0 -26 -31 -5 -54 -10 -160 -35 -355 -80 -433 -91
-510 -70 -80 23 -174 120 -201 207 -15 49 -22 73 -57 203 -11 41 -25 91 -30
110 -17 61 -50 184 -60 220 -5 19 -14 52 -20 73 l-12 38 -40 -43 c-26 -28 -35
-34 -24 -16 8 14 27 38 41 54 14 15 25 31 25 35 0 5 5 9 10 9 6 0 10 -7 10
-17 0 -9 2 -14 5 -11 4 3 3 17 0 31 -7 24 -9 23 -64 -41 -53 -62 -379 -444
-547 -642 -69 -81 -322 -377 -368 -430 -12 -14 -85 -100 -164 -192 -90 -105
-161 -179 -192 -199 -28 -18 -50 -34 -50 -36 0 -2 12 -1 28 3 l27 6 -24 -20
c-73 -59 -232 -56 -282 4 -12 16 -12 17 4 11 41 -16 50 -17 24 -2 -16 9 -41
37 -58 63 -29 46 -40 48 -14 2 20 -36 18 -46 -5 -25 -28 26 -60 118 -59 173
l1 47 13 -30 c13 -28 14 -26 13 45 0 41 -2 66 -5 55 -3 -11 -9 -24 -14 -30
-12 -12 -12 84 0 138 5 23 19 96 31 162 11 66 30 170 41 230 10 61 24 137 30
170 6 33 14 80 19 105 5 25 14 74 20 110 6 36 15 85 20 110 5 25 14 74 20 110
6 36 15 85 20 110 5 25 13 72 19 105 5 33 19 112 31 175 12 63 26 142 31 175
6 33 14 80 19 105 9 43 39 209 61 335 6 33 14 80 19 105 5 25 13 72 19 105 5
33 19 110 30 170 20 107 51 280 72 400 6 33 12 68 14 78 3 17 -37 -2 -200 -93
-16 -9 -70 -38 -120 -65 -49 -27 -126 -68 -170 -93 -291 -160 -411 -190 -541
-131 -47 21 -79 51 -44 42 11 -3 23 -9 26 -14 3 -5 13 -9 22 -9 9 0 -6 15 -33
34 -52 35 -79 66 -110 126 -11 20 -20 29 -23 22 -2 -7 3 -21 11 -30 9 -9 21
-30 27 -46 9 -26 9 -28 -5 -16 -22 18 -69 108 -445 845 -67 132 -155 303 -195
380 -40 77 -130 253 -200 390 -70 138 -131 254 -136 259 -4 5 -26 -29 -50 -75z
m-3102 -3532 c-3 -10 -87 85 -87 99 0 5 20 -14 45 -41 25 -27 44 -53 42 -58z
m6342 42 c-24 -28 -44 -48 -46 -42 -4 10 79 105 85 98 3 -2 -15 -27 -39 -56z
m-6288 -91 c27 -33 23 -45 -6 -18 -24 22 -32 40 -19 40 3 0 14 -10 25 -22z
m6219 14 c0 -5 -11 -19 -25 -32 -29 -27 -33 -19 -7 15 17 25 32 32 32 17z
m-6162 -74 c7 -7 12 -19 12 -27 0 -11 -4 -10 -20 4 -21 19 -26 35 -12 35 4 0
13 -5 20 -12z m6102 4 c0 -5 -9 -17 -20 -27 -16 -14 -20 -15 -20 -4 0 16 19
39 32 39 4 0 8 -4 8 -8z m-6039 -94 l23 -33 -27 24 c-15 14 -27 28 -27 33 0
15 8 8 31 -24z m5954 -6 l-28 -27 23 33 c12 18 25 31 28 27 3 -3 -7 -18 -23
-33z m-5895 -53 c0 -4 12 -22 28 -38 45 -48 162 -190 162 -197 0 -12 -17 6
-112 117 -108 127 -120 143 -94 133 9 -3 16 -10 16 -15z m5839 -16 c-161 -190
-199 -232 -199 -219 0 5 100 128 160 196 14 16 31 36 39 45 7 9 15 14 18 11 3
-3 -5 -18 -18 -33z m-5605 -258 c23 -36 20 -42 -9 -15 -26 24 -32 40 -16 40 5
0 16 -11 25 -25z m5396 17 c0 -5 -11 -19 -25 -32 -29 -27 -32 -21 -9 15 16 24
34 33 34 17z m-5330 -105 c0 -6 -9 -2 -20 8 -11 10 -20 23 -20 28 0 6 9 2 20
-8 11 -10 20 -23 20 -28z m5255 13 c-10 -11 -20 -18 -23 -15 -3 3 3 14 13 25
10 11 20 18 23 15 3 -3 -3 -14 -13 -25z m-5205 -70 c6 -11 9 -20 7 -20 -2 0
-12 9 -22 20 -10 11 -13 20 -7 20 6 0 16 -9 22 -20z m5160 17 c0 -2 -10 -12
-21 -23 -22 -19 -22 -19 -10 4 10 18 31 31 31 19z m-5100 -77 c0 -9 24 -40 89
-111 24 -27 42 -52 39 -55 -6 -5 -150 158 -156 177 -2 5 3 6 12 3 9 -3 16 -10
16 -14z m4970 -75 c-40 -47 -76 -88 -81 -91 -21 -13 -6 12 34 56 23 26 51 59
62 74 32 42 47 57 53 52 2 -3 -28 -44 -68 -91z m-4800 -124 c16 -30 12 -36
-10 -16 -21 19 -26 35 -10 35 5 0 14 -9 20 -19z m4700 11 c0 -5 -9 -17 -20
-27 -22 -20 -26 -14 -10 16 11 19 30 26 30 11z m-4620 -115 c0 -6 -11 0 -25
13 -14 13 -25 28 -25 33 0 6 11 0 25 -13 14 -13 25 -28 25 -33z m4540 18 c-13
-14 -26 -23 -28 -20 -3 3 5 16 18 30 13 14 26 23 28 20 3 -3 -5 -16 -18 -30z
m-4506 -51 c23 -23 19 -40 -4 -19 -11 10 -20 22 -20 27 0 12 7 10 24 -8z
m4448 -16 c-12 -13 -22 -17 -22 -11 0 6 7 19 16 28 9 9 19 13 22 10 3 -3 -4
-15 -16 -27z m-4309 -158 c-6 -6 -103 101 -103 115 0 5 25 -17 54 -50 30 -33
52 -62 49 -65z m4223 55 c-26 -30 -52 -55 -58 -55 -9 0 3 16 67 87 49 55 41
27 -9 -32z m-7550 -1656 c47 -39 87 -76 90 -81 10 -15 -37 12 -66 38 -14 13
-40 37 -58 54 -18 16 -37 30 -41 30 -5 0 -11 7 -15 15 -9 26 4 17 90 -56z
m10908 56 c-4 -8 -10 -15 -15 -15 -4 0 -23 -14 -41 -30 -18 -17 -44 -41 -58
-54 -14 -13 -37 -29 -50 -36 l-25 -12 20 20 c32 34 159 141 167 142 4 0 5 -7
2 -15z m-10739 -200 c28 -24 45 -44 39 -45 -6 0 -22 11 -35 24 -13 12 -34 28
-46 35 -22 11 -32 31 -15 31 4 0 30 -20 57 -45z m10545 35 c0 -5 -10 -15 -22
-21 -13 -7 -34 -23 -47 -35 -13 -13 -29 -24 -35 -24 -12 1 84 89 97 90 4 0 7
-4 7 -10z m-10444 -121 l29 -32 -32 19 c-18 10 -33 24 -33 31 0 18 3 17 36
-18z m10314 18 c0 -7 -15 -21 -32 -31 l-33 -19 29 32 c33 35 36 36 36 18z
m-10210 -108 c30 -28 43 -44 29 -35 -35 20 -107 86 -94 86 6 0 35 -23 65 -51z
m10106 15 c-21 -19 -50 -42 -65 -50 -14 -9 -1 7 29 35 30 28 60 51 65 51 6 0
-7 -16 -29 -36z m-10006 -99 c13 -14 20 -25 16 -25 -12 0 -56 32 -56 41 0 16
16 10 40 -16z m9910 16 c0 -9 -44 -41 -56 -41 -4 0 3 11 16 25 24 26 40 32 40
16z m-9815 -96 c28 -24 45 -44 40 -45 -6 0 -25 14 -43 30 -18 17 -37 30 -42
30 -4 0 -10 7 -14 15 -9 25 6 17 59 -30z m9739 30 c-4 -8 -10 -15 -14 -15 -5
0 -24 -13 -42 -30 -18 -16 -37 -30 -43 -30 -11 1 85 89 97 90 4 0 5 -7 2 -15z
m-9633 -121 c21 -24 22 -26 3 -16 -25 13 -50 42 -37 42 5 0 20 -12 34 -26z
m9499 10 c-8 -8 -23 -20 -34 -26 -19 -10 -18 -8 3 16 26 27 53 37 31 10z
m-9400 -95 c30 -28 42 -44 27 -34 -16 9 -37 25 -48 36 -10 10 -23 19 -28 19
-5 0 -11 7 -15 15 -10 26 7 16 64 -36z m9334 36 c-4 -8 -10 -15 -15 -15 -5 0
-18 -9 -28 -19 -11 -11 -32 -27 -48 -36 -15 -10 -3 6 27 34 57 52 74 62 64 36z
m-9239 -115 c10 -11 15 -20 11 -20 -14 0 -46 21 -46 30 0 16 16 11 35 -10z
m9115 10 c0 -9 -32 -30 -46 -30 -4 0 1 9 11 20 19 21 35 26 35 10z m-9015 -96
c28 -26 39 -39 25 -30 -14 9 -37 24 -52 34 -27 16 -45 42 -30 42 4 0 30 -21
57 -46z m8940 34 c-3 -7 -18 -21 -33 -30 -15 -10 -38 -25 -52 -34 -14 -9 -2 4
25 30 51 46 68 56 60 34z m-8840 -118 c10 -11 15 -20 11 -20 -4 0 -16 9 -28
20 -12 11 -17 20 -11 20 5 0 18 -9 28 -20z m8697 0 c-12 -11 -24 -20 -28 -20
-4 0 1 9 11 20 10 11 23 20 28 20 6 0 1 -9 -11 -20z m-8427 -229 c47 -40 84
-75 81 -78 -5 -5 -65 44 -149 121 -71 65 -23 35 68 -43z m8207 42 c-91 -83
-143 -125 -148 -120 -6 6 167 156 181 157 5 0 -10 -17 -33 -37z m-8076 -155
l19 -21 -27 18 c-29 18 -34 25 -20 25 5 0 17 -10 28 -22z m7914 18 c0 -2 -12
-12 -27 -21 l-28 -18 19 21 c17 20 36 29 36 18z m-7810 -107 c30 -27 44 -45
31 -38 -29 14 -109 89 -96 89 6 0 35 -23 65 -51z m7704 12 c-22 -21 -51 -44
-65 -50 -13 -7 1 11 31 38 64 59 93 69 34 12z m-7539 -150 c47 -40 84 -75 81
-78 -5 -5 -65 44 -149 121 -71 65 -23 35 68 -43z m7407 42 c-91 -83 -143 -125
-148 -120 -6 6 167 156 181 157 5 0 -10 -17 -33 -37z m-7242 -183 c30 -27 51
-49 45 -49 -5 -1 -35 22 -65 49 -30 27 -50 50 -45 50 6 0 35 -22 65 -50z
m7030 0 c-30 -27 -59 -50 -65 -49 -13 0 97 99 110 99 6 0 -15 -23 -45 -50z
m-6934 -81 l29 -31 -32 16 c-18 9 -33 23 -33 31 0 20 2 19 36 -16z m6854 16
c0 -8 -15 -22 -32 -31 l-33 -16 29 31 c34 35 36 36 36 16z m-6790 -70 c7 -8 8
-15 2 -15 -5 0 -15 7 -22 15 -7 8 -8 15 -2 15 5 0 15 -7 22 -15z m6710 0 c-7
-8 -17 -15 -22 -15 -6 0 -5 7 2 15 7 8 17 15 22 15 6 0 5 -7 -2 -15z m-6550
-141 c0 -9 -11 -1 -61 41 -29 25 -56 45 -61 45 -4 0 -8 7 -8 16 0 10 23 -5 65
-41 36 -32 65 -59 65 -61z m6486 84 c-9 -5 -36 -27 -62 -48 -71 -62 -67 -46 6
20 36 32 67 54 69 48 2 -6 -4 -15 -13 -20z m-6406 -148 c30 -27 50 -49 43 -50
-6 0 -24 13 -40 28 -15 16 -38 34 -51 41 -21 11 -30 31 -14 31 4 0 32 -22 62
-50z m6280 40 c0 -5 -10 -15 -22 -21 -13 -7 -36 -25 -51 -41 -16 -15 -34 -28
-40 -28 -13 1 92 100 106 100 4 0 7 -4 7 -10z m-6100 -196 c0 -3 -13 2 -30 11
-16 9 -30 20 -30 25 0 5 -12 15 -27 22 -15 7 -29 22 -31 33 -3 13 13 4 57 -34
34 -29 61 -55 61 -57z m5960 71 c-7 -8 -19 -15 -27 -15 -7 0 -16 -7 -20 -15
-3 -9 -20 -23 -37 -31 -24 -11 -17 -2 29 40 33 30 62 50 63 45 2 -5 -2 -16 -8
-24z m-2879 -1045 c-17 -17 -31 -28 -31 -24 0 11 53 65 58 59 2 -2 -10 -18
-27 -35z"/>
<path d="M5587 12595 c-9 -19 -15 -35 -12 -35 7 0 37 61 33 66 -3 2 -12 -12
-21 -31z"/>
<path d="M5740 12586 c0 -11 30 -66 36 -66 2 0 -3 15 -12 33 -19 36 -24 44
-24 33z"/>
<path d="M5497 12421 c-9 -16 -17 -33 -17 -38 0 -4 9 7 21 26 11 18 18 35 17
37 -2 2 -12 -10 -21 -25z"/>
<path d="M5810 12441 c0 -5 5 -13 10 -16 6 -3 10 -2 10 4 0 5 -4 13 -10 16 -5
3 -10 2 -10 -4z"/>
<path d="M5440 12308 c-17 -35 -22 -52 -13 -39 20 27 54 101 48 101 -3 0 -18
-28 -35 -62z"/>
<path d="M5858 12353 c5 -10 21 -44 37 -76 16 -32 33 -61 38 -64 4 -3 -10 32
-33 76 -22 45 -43 81 -45 81 -3 0 -2 -8 3 -17z"/>
<path d="M5385 12200 c-9 -16 -13 -30 -11 -30 3 0 12 14 21 30 9 17 13 30 11
30 -3 0 -12 -13 -21 -30z"/>
<path d="M5940 12196 c0 -11 30 -66 36 -66 2 0 -3 15 -12 33 -19 36 -24 44
-24 33z"/>
<path d="M5294 12029 c-14 -28 -23 -53 -20 -56 5 -5 30 39 46 82 16 42 2 28
-26 -26z"/>
<path d="M6010 12051 c0 -6 16 -36 35 -68 43 -72 45 -64 4 17 -29 58 -39 71
-39 51z"/>
<path d="M5255 11949 c-4 -6 -5 -12 -2 -15 2 -3 7 2 10 11 7 17 1 20 -8 4z"/>
<path d="M6090 11900 c6 -11 13 -20 16 -20 2 0 0 9 -6 20 -6 11 -13 20 -16 20
-2 0 0 -9 6 -20z"/>
<path d="M5222 11885 c-17 -37 -14 -45 4 -12 9 16 14 31 11 33 -2 2 -9 -7 -15
-21z"/>
<path d="M5181 11803 c-10 -26 -10 -27 4 -9 8 11 15 23 15 28 0 15 -7 8 -19
-19z"/>
<path d="M6150 11781 c0 -6 4 -13 10 -16 6 -3 7 1 4 9 -7 18 -14 21 -14 7z"/>
<path d="M5100 11650 c-6 -12 -9 -24 -7 -27 3 -2 11 5 17 17 6 12 9 24 7 27
-3 2 -11 -5 -17 -17z"/>
<path d="M6210 11661 c0 -5 5 -13 10 -16 6 -3 10 -2 10 4 0 5 -4 13 -10 16 -5
3 -10 2 -10 -4z"/>
<path d="M5065 11579 c-4 -6 -5 -12 -2 -15 2 -3 7 2 10 11 7 17 1 20 -8 4z"/>
<path d="M6270 11550 c11 -23 25 -52 31 -67 5 -14 12 -23 15 -20 6 5 -53 127
-61 127 -3 0 4 -18 15 -40z"/>
<path d="M5040 11530 c-6 -11 -8 -20 -6 -20 3 0 10 9 16 20 6 11 8 20 6 20 -3
0 -10 -9 -16 -20z"/>
<path d="M5016 11485 c-3 -8 -1 -15 4 -15 6 0 10 7 10 15 0 8 -2 15 -4 15 -2
0 -6 -7 -10 -15z"/>
<path d="M4975 11400 c-14 -27 -23 -50 -20 -50 2 0 16 23 30 50 14 28 23 50
20 50 -2 0 -16 -22 -30 -50z"/>
<path d="M6340 11414 c0 -6 7 -19 16 -30 14 -18 14 -18 3 6 -14 31 -19 36 -19
24z"/>
<path d="M4880 11220 c-41 -80 -34 -87 9 -9 18 33 31 63 28 66 -3 3 -20 -23
-37 -57z"/>
<path d="M6410 11271 c0 -5 5 -13 10 -16 6 -3 10 -2 10 4 0 5 -4 13 -10 16 -5
3 -10 2 -10 -4z"/>
<path d="M6432 11233 c30 -62 63 -122 66 -119 4 5 -57 126 -64 126 -3 0 -4 -3
-2 -7z"/>
<path d="M3482 11115 c0 -16 2 -22 5 -12 2 9 2 23 0 30 -3 6 -5 -1 -5 -18z"/>
<path d="M4830 11120 c-6 -11 -8 -20 -6 -20 3 0 10 9 16 20 6 11 8 20 6 20 -3
0 -10 -9 -16 -20z"/>
<path d="M7842 11115 c0 -16 2 -22 5 -12 2 9 2 23 0 30 -3 6 -5 -1 -5 -18z"/>
<path d="M3529 11103 c40 -31 272 -153 288 -153 10 0 -66 43 -207 116 -58 30
-94 47 -81 37z"/>
<path d="M7730 11074 c-160 -87 -225 -124 -217 -124 23 0 329 168 307 169 -3
0 -43 -20 -90 -45z"/>
<path d="M3491 11044 c0 -11 3 -14 6 -6 3 7 2 16 -1 19 -3 4 -6 -2 -5 -13z"/>
<path d="M7831 11044 c0 -11 3 -14 6 -6 3 7 2 16 -1 19 -3 4 -6 -2 -5 -13z"/>
<path d="M4786 11033 c-6 -14 -5 -15 5 -6 7 7 10 15 7 18 -3 3 -9 -2 -12 -12z"/>
<path d="M3502 11000 c0 -14 2 -19 5 -12 2 6 2 18 0 25 -3 6 -5 1 -5 -13z"/>
<path d="M7822 11000 c0 -14 2 -19 5 -12 2 6 2 18 0 25 -3 6 -5 1 -5 -13z"/>
<path d="M4761 10983 c-10 -26 -10 -27 4 -9 8 11 15 23 15 28 0 15 -7 8 -19
-19z"/>
<path d="M6550 11004 c0 -6 7 -19 16 -30 14 -18 14 -18 3 6 -14 31 -19 36 -19
24z"/>
<path d="M4736 10933 c-6 -14 -5 -15 5 -6 7 7 10 15 7 18 -3 3 -9 -2 -12 -12z"/>
<path d="M6580 10941 c0 -6 4 -13 10 -16 6 -3 7 1 4 9 -7 18 -14 21 -14 7z"/>
<path d="M3841 10933 c1 -9 150 -86 156 -80 2 2 -29 22 -69 43 -91 48 -88 47
-87 37z"/>
<path d="M7402 10897 c-39 -22 -70 -42 -68 -44 5 -6 154 71 155 80 1 12 -10 7
-87 -36z"/>
<path d="M3522 10890 c0 -14 2 -19 5 -12 2 6 2 18 0 25 -3 6 -5 1 -5 -13z"/>
<path d="M7802 10890 c0 -14 2 -19 5 -12 2 6 2 18 0 25 -3 6 -5 1 -5 -13z"/>
<path d="M4020 10837 c20 -20 190 -109 201 -105 4 2 -42 29 -104 62 -62 32
-105 52 -97 43z"/>
<path d="M7205 10790 c-60 -33 -104 -60 -98 -60 16 0 183 87 203 106 23 22 12
17 -105 -46z"/>
<path d="M3531 10824 c0 -11 3 -14 6 -6 3 7 2 16 -1 19 -3 4 -6 -2 -5 -13z"/>
<path d="M7791 10824 c0 -11 3 -14 6 -6 3 7 2 16 -1 19 -3 4 -6 -2 -5 -13z"/>
<path d="M3542 10780 c0 -14 2 -19 5 -12 2 6 2 18 0 25 -3 6 -5 1 -5 -13z"/>
<path d="M7781 10784 c0 -11 3 -14 6 -6 3 7 2 16 -1 19 -3 4 -6 -2 -5 -13z"/>
<path d="M4265 10710 c3 -5 16 -10 28 -9 21 0 21 1 2 9 -28 12 -37 12 -30 0z"/>
<path d="M7035 10710 c-19 -8 -19 -9 2 -9 12 -1 25 4 28 9 7 12 -2 12 -30 0z"/>
<path d="M4325 10690 c3 -5 13 -10 21 -10 8 0 14 5 14 10 0 6 -9 10 -21 10
-11 0 -17 -4 -14 -10z"/>
<path d="M6970 10690 c0 -5 6 -10 14 -10 8 0 18 5 21 10 3 6 -3 10 -14 10 -12
0 -21 -4 -21 -10z"/>
<path d="M3560 10673 c0 -13 5 -23 10 -23 13 0 13 11 0 30 -8 12 -10 11 -10
-7z"/>
<path d="M7757 10676 c-4 -10 -5 -21 -2 -24 9 -9 17 6 13 25 -3 17 -4 17 -11
-1z"/>
<path d="M3571 10604 c0 -11 3 -14 6 -6 3 7 2 16 -1 19 -3 4 -6 -2 -5 -13z"/>
<path d="M7751 10604 c0 -11 3 -14 6 -6 3 7 2 16 -1 19 -3 4 -6 -2 -5 -13z"/>
<path d="M3582 10560 c0 -14 2 -19 5 -12 2 6 2 18 0 25 -3 6 -5 1 -5 -13z"/>
<path d="M7742 10560 c0 -14 2 -19 5 -12 2 6 2 18 0 25 -3 6 -5 1 -5 -13z"/>
<path d="M3600 10444 c0 -8 5 -12 10 -9 6 4 8 11 5 16 -9 14 -15 11 -15 -7z"/>
<path d="M7715 10451 c-3 -5 -1 -12 5 -16 5 -3 10 1 10 9 0 18 -6 21 -15 7z"/>
<path d="M3611 10374 c0 -11 3 -14 6 -6 3 7 2 16 -1 19 -3 4 -6 -2 -5 -13z"/>
<path d="M7711 10374 c0 -11 3 -14 6 -6 3 7 2 16 -1 19 -3 4 -6 -2 -5 -13z"/>
<path d="M3620 10336 c0 -9 5 -16 10 -16 6 0 10 4 10 9 0 6 -4 13 -10 16 -5 3
-10 -1 -10 -9z"/>
<path d="M7696 10341 c-4 -7 -5 -15 -2 -18 9 -9 19 4 14 18 -4 11 -6 11 -12 0z"/>
<path d="M3640 10223 c0 -13 5 -23 10 -23 13 0 13 11 0 30 -8 12 -10 11 -10
-7z"/>
<path d="M7677 10226 c-4 -10 -5 -21 -2 -24 9 -9 17 6 13 25 -3 17 -4 17 -11
-1z"/>
<path d="M3651 10154 c0 -11 3 -14 6 -6 3 7 2 16 -1 19 -3 4 -6 -2 -5 -13z"/>
<path d="M7671 10154 c0 -11 3 -14 6 -6 3 7 2 16 -1 19 -3 4 -6 -2 -5 -13z"/>
<path d="M3660 10110 c0 -19 3 -21 12 -12 9 9 9 15 0 24 -9 9 -12 7 -12 -12z"/>
<path d="M7654 10119 c-3 -6 -1 -16 5 -22 8 -8 11 -5 11 11 0 24 -5 28 -16 11z"/>
<path d="M3672 10050 c0 -14 2 -19 5 -12 2 6 2 18 0 25 -3 6 -5 1 -5 -13z"/>
<path d="M7652 10050 c0 -14 2 -19 5 -12 2 6 2 18 0 25 -3 6 -5 1 -5 -13z"/>
<path d="M3681 10004 c0 -11 3 -14 6 -6 3 7 2 16 -1 19 -3 4 -6 -2 -5 -13z"/>
<path d="M7641 10004 c0 -11 3 -14 6 -6 3 7 2 16 -1 19 -3 4 -6 -2 -5 -13z"/>
<path d="M3702 9890 c0 -14 2 -19 5 -12 2 6 2 18 0 25 -3 6 -5 1 -5 -13z"/>
<path d="M7622 9890 c0 -14 2 -19 5 -12 2 6 2 18 0 25 -3 6 -5 1 -5 -13z"/>
<path d="M3711 9824 c0 -11 3 -14 6 -6 3 7 2 16 -1 19 -3 4 -6 -2 -5 -13z"/>
<path d="M7611 9824 c0 -11 3 -14 6 -6 3 7 2 16 -1 19 -3 4 -6 -2 -5 -13z"/>
<path d="M3721 9784 c0 -11 3 -14 6 -6 3 7 2 16 -1 19 -3 4 -6 -2 -5 -13z"/>
<path d="M7601 9784 c0 -11 3 -14 6 -6 3 7 2 16 -1 19 -3 4 -6 -2 -5 -13z"/>
<path d="M3740 9673 c0 -13 5 -23 10 -23 13 0 13 11 0 30 -8 12 -10 11 -10 -7z"/>
<path d="M7577 9676 c-4 -10 -5 -21 -2 -24 9 -9 17 6 13 25 -3 17 -4 17 -11
-1z"/>
<path d="M3751 9604 c0 -11 3 -14 6 -6 3 7 2 16 -1 19 -3 4 -6 -2 -5 -13z"/>
<path d="M7571 9604 c0 -11 3 -14 6 -6 3 7 2 16 -1 19 -3 4 -6 -2 -5 -13z"/>
<path d="M3761 9554 c0 -11 3 -14 6 -6 3 7 2 16 -1 19 -3 4 -6 -2 -5 -13z"/>
<path d="M7561 9554 c0 -11 3 -14 6 -6 3 7 2 16 -1 19 -3 4 -6 -2 -5 -13z"/>
<path d="M3780 9444 c0 -8 5 -12 10 -9 6 4 8 11 5 16 -9 14 -15 11 -15 -7z"/>
<path d="M7535 9451 c-3 -5 -1 -12 5 -16 5 -3 10 1 10 9 0 18 -6 21 -15 7z"/>
<path d="M3791 9374 c0 -11 3 -14 6 -6 3 7 2 16 -1 19 -3 4 -6 -2 -5 -13z"/>
<path d="M7531 9374 c0 -11 3 -14 6 -6 3 7 2 16 -1 19 -3 4 -6 -2 -5 -13z"/>
<path d="M3800 9330 c0 -19 3 -21 12 -12 9 9 9 15 0 24 -9 9 -12 7 -12 -12z"/>
<path d="M7514 9339 c-3 -6 -1 -16 5 -22 8 -8 11 -5 11 11 0 24 -5 28 -16 11z"/>
<path d="M2282 9215 c-16 -55 -14 -67 4 -26 8 19 13 42 11 50 -2 9 -9 -2 -15
-24z"/>
<path d="M9030 9239 c0 -9 7 -32 15 -50 l16 -34 -7 35 c-8 43 -23 74 -24 49z"/>
<path d="M3820 9215 c0 -8 5 -15 10 -15 6 0 10 7 10 15 0 8 -4 15 -10 15 -5 0
-10 -7 -10 -15z"/>
<path d="M7490 9215 c0 -8 5 -15 10 -15 6 0 10 7 10 15 0 8 -4 15 -10 15 -5 0
-10 -7 -10 -15z"/>
<path d="M3831 9154 c0 -11 3 -14 6 -6 3 7 2 16 -1 19 -3 4 -6 -2 -5 -13z"/>
<path d="M7491 9154 c0 -11 3 -14 6 -6 3 7 2 16 -1 19 -3 4 -6 -2 -5 -13z"/>
<path d="M2260 9134 c0 -8 5 -12 10 -9 6 3 10 10 10 16 0 5 -4 9 -10 9 -5 0
-10 -7 -10 -16z"/>
<path d="M9050 9141 c0 -6 5 -13 10 -16 6 -3 10 1 10 9 0 9 -4 16 -10 16 -5 0
-10 -4 -10 -9z"/>
<path d="M3840 9110 c0 -19 3 -21 12 -12 9 9 9 15 0 24 -9 9 -12 7 -12 -12z"/>
<path d="M7474 9119 c-3 -6 -1 -16 5 -22 8 -8 11 -5 11 11 0 24 -5 28 -16 11z"/>
<path d="M2221 8990 c-6 -25 -16 -58 -21 -74 -15 -43 -12 -55 5 -22 8 15 15
37 15 48 0 11 5 28 11 39 5 11 9 28 6 37 -2 10 -9 -3 -16 -28z"/>
<path d="M9094 9005 c4 -16 10 -43 13 -59 6 -28 33 -89 33 -73 0 15 -40 150
-46 156 -4 3 -4 -7 0 -24z"/>
<path d="M3861 8994 c0 -11 3 -14 6 -6 3 7 2 16 -1 19 -3 4 -6 -2 -5 -13z"/>
<path d="M7461 8994 c0 -11 3 -14 6 -6 3 7 2 16 -1 19 -3 4 -6 -2 -5 -13z"/>
<path d="M3872 8940 c0 -14 2 -19 5 -12 2 6 2 18 0 25 -3 6 -5 1 -5 -13z"/>
<path d="M7452 8940 c0 -14 2 -19 5 -12 2 6 2 18 0 25 -3 6 -5 1 -5 -13z"/>
<path d="M3880 8889 c0 -11 4 -18 10 -14 5 3 7 12 3 20 -7 21 -13 19 -13 -6z"/>
<path d="M7437 8895 c-4 -8 -2 -17 3 -20 6 -4 10 3 10 14 0 25 -6 27 -13 6z"/>
<path d="M2181 8844 c0 -11 3 -14 6 -6 3 7 2 16 -1 19 -3 4 -6 -2 -5 -13z"/>
<path d="M9141 8844 c0 -11 3 -14 6 -6 3 7 2 16 -1 19 -3 4 -6 -2 -5 -13z"/>
<path d="M3892 8830 c0 -14 2 -19 5 -12 2 6 2 18 0 25 -3 6 -5 1 -5 -13z"/>
<path d="M7432 8830 c0 -14 2 -19 5 -12 2 6 2 18 0 25 -3 6 -5 1 -5 -13z"/>
<path d="M2161 8776 c-6 -27 -10 -50 -8 -52 7 -7 30 73 25 87 -2 7 -10 -8 -17
-35z"/>
<path d="M9151 8804 c-1 -12 6 -37 14 -55 l16 -34 -7 35 c-4 19 -10 44 -15 55
-7 19 -8 19 -8 -1z"/>
<path d="M3902 8780 c0 -14 2 -19 5 -12 2 6 2 18 0 25 -3 6 -5 1 -5 -13z"/>
<path d="M7422 8780 c0 -14 2 -19 5 -12 2 6 2 18 0 25 -3 6 -5 1 -5 -13z"/>
<path d="M280 8726 c0 -9 5 -16 10 -16 6 0 10 4 10 9 0 6 -4 13 -10 16 -5 3
-10 -1 -10 -9z"/>
<path d="M415 8730 c3 -5 18 -10 33 -10 21 0 24 2 12 10 -20 13 -53 13 -45 0z"/>
<path d="M3912 8720 c0 -14 2 -19 5 -12 2 6 2 18 0 25 -3 6 -5 1 -5 -13z"/>
<path d="M7412 8720 c0 -14 2 -19 5 -12 2 6 2 18 0 25 -3 6 -5 1 -5 -13z"/>
<path d="M10870 8730 c-12 -8 -9 -10 12 -10 15 0 30 5 33 10 8 13 -25 13 -45
0z"/>
<path d="M11036 8731 c-4 -7 -5 -15 -2 -18 9 -9 19 4 14 18 -4 11 -6 11 -12 0z"/>
<path d="M505 8710 c3 -5 21 -10 38 -9 27 0 29 2 12 9 -28 12 -57 12 -50 0z"/>
<path d="M10775 8710 c-17 -7 -15 -9 12 -9 17 -1 35 4 38 9 7 12 -22 12 -50 0z"/>
<path d="M2140 8695 c0 -8 2 -15 4 -15 2 0 6 7 10 15 3 8 1 15 -4 15 -6 0 -10
-7 -10 -15z"/>
<path d="M9176 8695 c4 -8 8 -15 10 -15 2 0 4 7 4 15 0 8 -4 15 -10 15 -5 0
-7 -7 -4 -15z"/>
<path d="M595 8690 c3 -5 23 -10 43 -9 33 1 34 2 12 9 -36 12 -62 12 -55 0z"/>
<path d="M10680 8690 c-22 -7 -21 -8 12 -9 20 -1 40 4 43 9 7 12 -19 12 -55 0z"/>
<path d="M695 8670 c4 -6 11 -8 16 -5 14 9 11 15 -7 15 -8 0 -12 -5 -9 -10z"/>
<path d="M3921 8664 c0 -11 3 -14 6 -6 3 7 2 16 -1 19 -3 4 -6 -2 -5 -13z"/>
<path d="M7401 8664 c0 -11 3 -14 6 -6 3 7 2 16 -1 19 -3 4 -6 -2 -5 -13z"/>
<path d="M10615 8670 c4 -6 11 -8 16 -5 14 9 11 15 -7 15 -8 0 -12 -5 -9 -10z"/>
<path d="M738 8663 c7 -3 16 -2 19 1 4 3 -2 6 -13 5 -11 0 -14 -3 -6 -6z"/>
<path d="M10578 8663 c7 -3 16 -2 19 1 4 3 -2 6 -13 5 -11 0 -14 -3 -6 -6z"/>
<path d="M785 8650 c4 -6 11 -8 16 -5 14 9 11 15 -7 15 -8 0 -12 -5 -9 -10z"/>
<path d="M10525 8650 c4 -6 11 -8 16 -5 14 9 11 15 -7 15 -8 0 -12 -5 -9 -10z"/>
<path d="M855 8636 c17 -7 34 -11 40 -8 5 4 -1 9 -15 13 -42 12 -57 9 -25 -5z"/>
<path d="M10450 8641 c-14 -4 -20 -9 -15 -13 6 -3 24 1 40 8 32 14 17 17 -25
5z"/>
<path d="M2112 8602 c-15 -51 -71 -115 -121 -142 -20 -11 -30 -19 -23 -20 7 0
36 15 63 33 37 24 56 45 75 85 14 29 24 61 22 70 -2 9 -9 -2 -16 -26z"/>
<path d="M9200 8627 c0 -10 11 -42 25 -70 18 -39 37 -60 74 -84 27 -18 56 -33
63 -33 7 1 -3 9 -22 20 -52 27 -98 80 -120 136 -10 27 -19 41 -20 31z"/>
<path d="M310 8623 c0 -18 20 -66 25 -61 3 3 -1 20 -9 39 -9 19 -15 29 -16 22z"/>
<path d="M945 8616 c17 -7 34 -11 40 -8 5 4 -1 9 -15 13 -42 12 -57 9 -25 -5z"/>
<path d="M10360 8621 c-14 -4 -20 -9 -15 -13 6 -3 24 1 40 8 32 14 17 17 -25
5z"/>
<path d="M11003 8599 c-7 -18 -11 -35 -8 -37 6 -6 27 48 23 60 -2 5 -9 -6 -15
-23z"/>
<path d="M3931 8604 c0 -11 3 -14 6 -6 3 7 2 16 -1 19 -3 4 -6 -2 -5 -13z"/>
<path d="M7391 8604 c0 -11 3 -14 6 -6 3 7 2 16 -1 19 -3 4 -6 -2 -5 -13z"/>
<path d="M1058 8593 c7 -3 16 -2 19 1 4 3 -2 6 -13 5 -11 0 -14 -3 -6 -6z"/>
<path d="M10258 8593 c7 -3 16 -2 19 1 4 3 -2 6 -13 5 -11 0 -14 -3 -6 -6z"/>
<path d="M1198 8563 c7 -3 16 -2 19 1 4 3 -2 6 -13 5 -11 0 -14 -3 -6 -6z"/>
<path d="M3941 8554 c0 -11 3 -14 6 -6 3 7 2 16 -1 19 -3 4 -6 -2 -5 -13z"/>
<path d="M7381 8554 c0 -11 3 -14 6 -6 3 7 2 16 -1 19 -3 4 -6 -2 -5 -13z"/>
<path d="M10118 8563 c7 -3 16 -2 19 1 4 3 -2 6 -13 5 -11 0 -14 -3 -6 -6z"/>
<path d="M1325 8530 c3 -5 23 -10 43 -9 33 1 34 2 12 9 -36 12 -62 12 -55 0z"/>
<path d="M9950 8530 c-22 -7 -21 -8 12 -9 20 -1 40 4 43 9 7 12 -19 12 -55 0z"/>
<path d="M340 8506 c0 -9 5 -16 10 -16 6 0 10 4 10 9 0 6 -4 13 -10 16 -5 3
-10 -1 -10 -9z"/>
<path d="M1415 8510 c3 -5 18 -10 33 -10 21 0 24 2 12 10 -20 13 -53 13 -45 0z"/>
<path d="M9870 8510 c-12 -8 -9 -10 12 -10 15 0 30 5 33 10 8 13 -25 13 -45 0z"/>
<path d="M10976 8511 c-4 -7 -5 -15 -2 -18 9 -9 19 4 14 18 -4 11 -6 11 -12 0z"/>
<path d="M1505 8490 c3 -5 23 -10 43 -9 33 1 34 2 12 9 -36 12 -62 12 -55 0z"/>
<path d="M9770 8490 c-22 -7 -21 -8 12 -9 20 -1 40 4 43 9 7 12 -19 12 -55 0z"/>
<path d="M1605 8470 c4 -6 11 -8 16 -5 14 9 11 15 -7 15 -8 0 -12 -5 -9 -10z"/>
<path d="M9705 8470 c4 -6 11 -8 16 -5 14 9 11 15 -7 15 -8 0 -12 -5 -9 -10z"/>
<path d="M1648 8463 c7 -3 16 -2 19 1 4 3 -2 6 -13 5 -11 0 -14 -3 -6 -6z"/>
<path d="M9668 8463 c7 -3 16 -2 19 1 4 3 -2 6 -13 5 -11 0 -14 -3 -6 -6z"/>
<path d="M1695 8450 c4 -6 11 -8 16 -5 14 9 11 15 -7 15 -8 0 -12 -5 -9 -10z"/>
<path d="M3960 8444 c0 -8 5 -12 10 -9 6 4 8 11 5 16 -9 14 -15 11 -15 -7z"/>
<path d="M7355 8451 c-3 -5 -1 -12 5 -16 5 -3 10 1 10 9 0 18 -6 21 -15 7z"/>
<path d="M9615 8450 c4 -6 11 -8 16 -5 14 9 11 15 -7 15 -8 0 -12 -5 -9 -10z"/>
<path d="M1765 8436 c17 -7 34 -11 40 -8 5 4 -1 9 -15 13 -42 12 -57 9 -25 -5z"/>
<path d="M9540 8441 c-14 -4 -20 -9 -15 -13 6 -3 24 1 40 8 32 14 17 17 -25 5z"/>
<path d="M365 8409 c4 -18 14 -49 21 -69 13 -32 14 -32 8 -5 -3 17 -8 45 -11
63 -3 18 -10 35 -15 38 -7 4 -8 -5 -3 -27z"/>
<path d="M1915 8430 c-3 -5 1 -10 9 -10 8 0 18 5 21 10 3 6 -1 10 -9 10 -8 0
-18 -4 -21 -10z"/>
<path d="M9385 8430 c3 -5 13 -10 21 -10 8 0 12 5 9 10 -3 6 -13 10 -21 10 -8
0 -12 -4 -9 -10z"/>
<path d="M10957 8430 c-3 -8 -8 -27 -11 -42 -15 -72 -14 -78 4 -24 11 33 19
65 16 70 -2 6 -6 4 -9 -4z"/>
<path d="M3971 8384 c0 -11 3 -14 6 -6 3 7 2 16 -1 19 -3 4 -6 -2 -5 -13z"/>
<path d="M7351 8384 c0 -11 3 -14 6 -6 3 7 2 16 -1 19 -3 4 -6 -2 -5 -13z"/>
<path d="M3981 8334 c0 -11 3 -14 6 -6 3 7 2 16 -1 19 -3 4 -6 -2 -5 -13z"/>
<path d="M7341 8334 c0 -11 3 -14 6 -6 3 7 2 16 -1 19 -3 4 -6 -2 -5 -13z"/>
<path d="M402 8280 c0 -8 4 -26 8 -40 6 -20 8 -21 8 -5 0 11 -3 29 -8 40 -5
12 -8 14 -8 5z"/>
<path d="M10915 8260 c-4 -17 -5 -34 -2 -36 2 -3 7 10 11 27 8 42 0 50 -9 9z"/>
<path d="M4000 8221 c0 -12 5 -21 10 -21 6 0 10 6 10 14 0 8 -4 18 -10 21 -5
3 -10 -3 -10 -14z"/>
<path d="M7315 8227 c-4 -10 -5 -21 -1 -24 10 -10 18 4 13 24 -4 17 -4 17 -12
0z"/>
<path d="M421 8198 c0 -7 4 -22 9 -33 8 -18 9 -17 9 7 1 15 -3 30 -9 33 -5 3
-10 0 -9 -7z"/>
<path d="M10897 8204 c-4 -4 -7 -19 -6 -33 l0 -26 10 24 c10 26 8 47 -4 35z"/>
<path d="M440 8120 c0 -5 5 -10 10 -10 6 0 10 5 10 10 0 6 -4 10 -10 10 -5 0
-10 -4 -10 -10z"/>
<path d="M10870 8120 c0 -5 5 -10 10 -10 6 0 10 5 10 10 0 6 -4 10 -10 10 -5
0 -10 -4 -10 -10z"/>
<path d="M461 8048 c0 -7 4 -22 9 -33 8 -18 9 -17 9 7 1 15 -3 30 -9 33 -5 3
-10 0 -9 -7z"/>
<path d="M10857 8054 c-4 -4 -7 -19 -6 -33 l0 -26 10 24 c10 26 8 47 -4 35z"/>
<path d="M480 7975 c0 -16 38 -141 39 -128 2 20 -22 118 -31 128 -5 6 -8 6 -8
0z"/>
<path d="M10837 7970 c-9 -27 -27 -109 -26 -122 0 -7 9 16 20 52 10 36 17 70
15 75 -2 6 -6 3 -9 -5z"/>
<path d="M4012 7930 c0 -14 2 -19 5 -12 2 6 2 18 0 25 -3 6 -5 1 -5 -13z"/>
<path d="M7312 7930 c0 -14 2 -19 5 -12 2 6 2 18 0 25 -3 6 -5 1 -5 -13z"/>
<path d="M4000 7889 c0 -5 5 -7 10 -4 6 3 10 8 10 11 0 2 -4 4 -10 4 -5 0 -10
-5 -10 -11z"/>
<path d="M7315 7890 c3 -5 8 -10 11 -10 2 0 4 5 4 10 0 6 -5 10 -11 10 -5 0
-7 -4 -4 -10z"/>
<path d="M520 7816 c0 -8 5 -18 10 -21 6 -3 10 1 10 9 0 8 -4 18 -10 21 -5 3
-10 -1 -10 -9z"/>
<path d="M10797 7824 c-4 -4 -7 -14 -7 -23 0 -11 3 -12 11 -4 6 6 10 16 7 23
-2 6 -7 8 -11 4z"/>
<path d="M3738 7743 c7 -3 16 -2 19 1 4 3 -2 6 -13 5 -11 0 -14 -3 -6 -6z"/>
<path d="M7578 7743 c7 -3 16 -2 19 1 4 3 -2 6 -13 5 -11 0 -14 -3 -6 -6z"/>
<path d="M3798 7733 c6 -2 18 -2 25 0 6 3 1 5 -13 5 -14 0 -19 -2 -12 -5z"/>
<path d="M7508 7733 c6 -2 18 -2 25 0 6 3 1 5 -13 5 -14 0 -19 -2 -12 -5z"/>
<path d="M561 7668 c1 -7 5 -24 9 -38 8 -24 8 -24 9 7 1 17 -3 35 -9 38 -5 3
-10 0 -9 -7z"/>
<path d="M10757 7673 c-4 -3 -7 -20 -6 -37 l1 -31 9 34 c10 33 8 47 -4 34z"/>
<path d="M580 7586 c0 -9 5 -16 10 -16 6 0 10 4 10 9 0 6 -4 13 -10 16 -5 3
-10 -1 -10 -9z"/>
<path d="M10736 7591 c-4 -7 -5 -15 -2 -18 9 -9 19 4 14 18 -4 11 -6 11 -12 0z"/>
<path d="M601 7514 c0 -11 3 -14 6 -6 3 7 2 16 -1 19 -3 4 -6 -2 -5 -13z"/>
<path d="M10721 7514 c0 -11 3 -14 6 -6 3 7 2 16 -1 19 -3 4 -6 -2 -5 -13z"/>
<path d="M611 7474 c0 -11 3 -14 6 -6 3 7 2 16 -1 19 -3 4 -6 -2 -5 -13z"/>
<path d="M10711 7474 c0 -11 3 -14 6 -6 3 7 2 16 -1 19 -3 4 -6 -2 -5 -13z"/>
<path d="M621 7438 c0 -7 4 -22 9 -33 8 -18 9 -17 9 7 1 15 -3 30 -9 33 -5 3
-10 0 -9 -7z"/>
<path d="M10697 7444 c-4 -4 -7 -14 -7 -23 0 -11 3 -12 11 -4 6 6 10 16 7 23
-2 6 -7 8 -11 4z"/>
<path d="M651 7324 c0 -11 3 -14 6 -6 3 7 2 16 -1 19 -3 4 -6 -2 -5 -13z"/>
<path d="M10671 7324 c0 -11 3 -14 6 -6 3 7 2 16 -1 19 -3 4 -6 -2 -5 -13z"/>
<path d="M661 7288 c1 -7 5 -24 9 -38 8 -24 8 -24 9 7 1 17 -3 35 -9 38 -5 3
-10 0 -9 -7z"/>
<path d="M10657 7293 c-4 -3 -7 -20 -6 -37 l1 -31 9 34 c10 33 8 47 -4 34z"/>
<path d="M680 7210 c0 -5 5 -10 11 -10 5 0 7 5 4 10 -3 6 -8 10 -11 10 -2 0
-4 -4 -4 -10z"/>
<path d="M10635 7210 c-3 -5 -1 -10 4 -10 6 0 11 5 11 10 0 6 -2 10 -4 10 -3
0 -8 -4 -11 -10z"/>
<path d="M700 7136 c0 -8 5 -18 10 -21 6 -3 10 1 10 9 0 8 -4 18 -10 21 -5 3
-10 -1 -10 -9z"/>
<path d="M10617 7144 c-4 -4 -7 -14 -7 -23 0 -11 3 -12 11 -4 6 6 10 16 7 23
-2 6 -7 8 -11 4z"/>
<path d="M716 7070 c4 -19 10 -44 15 -55 6 -17 8 -15 8 10 0 17 -6 41 -15 55
-15 25 -15 25 -8 -10z"/>
<path d="M10602 7076 c-7 -15 -12 -39 -11 -54 1 -22 4 -19 15 18 16 52 14 75
-4 36z"/>
<path d="M751 6794 c0 -11 3 -14 6 -6 3 7 2 16 -1 19 -3 4 -6 -2 -5 -13z"/>
<path d="M10571 6794 c0 -11 3 -14 6 -6 3 7 2 16 -1 19 -3 4 -6 -2 -5 -13z"/>
<path d="M525 6590 c-3 -5 -2 -10 4 -10 5 0 13 5 16 10 3 6 2 10 -4 10 -5 0
-13 -4 -16 -10z"/>
<path d="M10785 6590 c3 -5 11 -10 16 -10 6 0 7 5 4 10 -3 6 -11 10 -16 10 -6
0 -7 -4 -4 -10z"/>
<path d="M485 6570 c-3 -5 -2 -10 4 -10 5 0 13 5 16 10 3 6 2 10 -4 10 -5 0
-13 -4 -16 -10z"/>
<path d="M10825 6570 c3 -5 11 -10 16 -10 6 0 7 5 4 10 -3 6 -11 10 -16 10 -6
0 -7 -4 -4 -10z"/>
<path d="M445 6550 c-3 -5 -2 -10 4 -10 5 0 13 5 16 10 3 6 2 10 -4 10 -5 0
-13 -4 -16 -10z"/>
<path d="M10865 6550 c3 -5 11 -10 16 -10 6 0 7 5 4 10 -3 6 -11 10 -16 10 -6
0 -7 -4 -4 -10z"/>
<path d="M300 6480 c-63 -32 -111 -59 -105 -59 10 -1 235 109 235 115 0 9 -21
0 -130 -56z"/>
<path d="M10900 6536 c0 -6 225 -116 235 -115 11 0 -215 118 -227 118 -5 1 -8
-1 -8 -3z"/>
<path d="M160 6410 c-9 -6 -10 -10 -3 -10 6 0 15 5 18 10 8 12 4 12 -15 0z"/>
<path d="M11157 6409 c7 -7 15 -10 18 -7 3 3 -2 9 -12 12 -14 6 -15 5 -6 -5z"/>
<path d="M2831 3950 c14 -31 19 -36 19 -24 0 6 -7 19 -16 30 -14 18 -14 18 -3
-6z"/>
<path d="M8490 3949 c-7 -11 -10 -23 -7 -25 2 -2 9 7 15 21 14 30 7 33 -8 4z"/>
<path d="M2861 3874 c0 -11 3 -14 6 -6 3 7 2 16 -1 19 -3 4 -6 -2 -5 -13z"/>
<path d="M8461 3874 c0 -11 3 -14 6 -6 3 7 2 16 -1 19 -3 4 -6 -2 -5 -13z"/>
<path d="M2883 3750 c0 -25 2 -35 4 -22 2 12 2 32 0 45 -2 12 -4 2 -4 -23z"/>
<path d="M8443 3750 c0 -25 2 -35 4 -22 2 12 2 32 0 45 -2 12 -4 2 -4 -23z"/>
<path d="M2872 3680 c0 -14 2 -19 5 -12 2 6 2 18 0 25 -3 6 -5 1 -5 -13z"/>
<path d="M8450 3667 c0 -20 4 -38 9 -42 6 -3 7 10 4 32 -8 50 -13 55 -13 10z"/>
<path d="M2867 3643 c-4 -3 -7 -11 -7 -17 0 -6 5 -5 12 2 6 6 9 14 7 17 -3 3
-9 2 -12 -2z"/>
<path d="M2841 3563 c-1 -6 -4 -20 -7 -30 -5 -17 -5 -17 6 0 6 10 9 23 6 30
-3 9 -5 9 -5 0z"/>
<path d="M8481 3560 c0 -8 4 -22 9 -30 12 -18 12 -2 0 25 -6 13 -9 15 -9 5z"/>
<path d="M2791 3393 c0 -6 -4 -20 -7 -30 -5 -14 -4 -15 5 -7 7 7 11 20 8 30
-3 11 -5 14 -6 7z"/>
<path d="M8531 3383 c-1 -12 4 -25 9 -28 12 -7 12 2 0 30 -8 19 -9 19 -9 -2z"/>
<path d="M2760 3291 c0 -5 -3 -17 -7 -27 -4 -11 -3 -15 4 -11 14 9 24 47 12
47 -5 0 -9 -4 -9 -9z"/>
<path d="M8557 3280 c3 -11 10 -23 16 -27 7 -4 8 0 4 11 -4 10 -7 22 -7 27 0
5 -4 9 -9 9 -5 0 -7 -9 -4 -20z"/>
<path d="M5935 3190 c-3 -5 1 -10 9 -10 9 0 16 5 16 10 0 6 -4 10 -9 10 -6 0
-13 -4 -16 -10z"/>
<path d="M2727 3174 c-4 -4 -7 -14 -7 -23 0 -11 3 -12 11 -4 6 6 10 16 7 23
-2 6 -7 8 -11 4z"/>
<path d="M5055 3170 c-3 -5 3 -10 15 -10 12 0 18 5 15 10 -3 6 -10 10 -15 10
-5 0 -12 -4 -15 -10z"/>
<path d="M6245 3170 c-3 -5 3 -10 15 -10 12 0 18 5 15 10 -3 6 -10 10 -15 10
-5 0 -12 -4 -15 -10z"/>
<path d="M8590 3166 c0 -8 5 -18 10 -21 6 -3 10 1 10 9 0 8 -4 18 -10 21 -5 3
-10 -1 -10 -9z"/>
<path d="M4658 3113 c6 -2 18 -2 25 0 6 3 1 5 -13 5 -14 0 -19 -2 -12 -5z"/>
<path d="M6648 3113 c6 -2 18 -2 25 0 6 3 1 5 -13 5 -14 0 -19 -2 -12 -5z"/>
<path d="M3823 3013 c9 -2 23 -2 30 0 6 3 -1 5 -18 5 -16 0 -22 -2 -12 -5z"/>
<path d="M7483 3013 c9 -2 23 -2 30 0 6 3 -1 5 -18 5 -16 0 -22 -2 -12 -5z"/>
<path d="M5773 2940 c0 -36 2 -50 4 -32 2 17 2 47 0 65 -2 17 -4 3 -4 -33z"/>
<path d="M2666 2964 c-4 -14 -5 -28 -3 -31 3 -2 8 8 11 23 4 14 5 28 3 31 -3
2 -8 -8 -11 -23z"/>
<path d="M8651 2980 c0 -8 4 -24 9 -35 5 -13 9 -14 9 -5 0 8 -4 24 -9 35 -5
13 -9 14 -9 5z"/>
<path d="M5562 2930 c0 -14 2 -19 5 -12 2 6 2 18 0 25 -3 6 -5 1 -5 -13z"/>
<path d="M2895 2910 c-4 -6 6 -10 22 -10 22 0 25 2 13 10 -19 12 -27 12 -35 0z"/>
<path d="M2988 2913 c7 -3 16 -2 19 1 4 3 -2 6 -13 5 -11 0 -14 -3 -6 -6z"/>
<path d="M8328 2913 c7 -3 16 -2 19 1 4 3 -2 6 -13 5 -11 0 -14 -3 -6 -6z"/>
<path d="M8400 2910 c-12 -8 -9 -10 13 -10 16 0 26 4 22 10 -8 12 -16 12 -35
0z"/>
<path d="M5553 2700 c0 -41 2 -58 4 -37 2 20 2 54 0 75 -2 20 -4 3 -4 -38z"/>
<path d="M5776 2595 c-3 -8 -1 -25 4 -37 8 -20 9 -18 9 15 1 39 -3 47 -13 22z"/>
<path d="M5542 2445 c0 -16 2 -22 5 -12 2 9 2 23 0 30 -3 6 -5 -1 -5 -18z"/>
<path d="M5788 2263 c-1 -27 0 -84 3 -128 5 -73 5 -69 7 48 2 127 -3 169 -10
80z"/>
<path d="M5533 2225 c0 -44 2 -61 4 -37 2 23 2 59 0 80 -2 20 -4 1 -4 -43z"/>
<path d="M5522 1960 c0 -14 2 -19 5 -12 2 6 2 18 0 25 -3 6 -5 1 -5 -13z"/>
<path d="M5510 1740 c0 -40 2 -71 5 -68 8 7 8 128 1 135 -3 4 -6 -27 -6 -67z"/>
<path d="M5503 1495 c0 -22 2 -30 4 -17 2 12 2 30 0 40 -3 9 -5 -1 -4 -23z"/>
<path d="M5808 1433 c-2 -27 -1 -84 3 -128 5 -74 6 -71 7 48 2 130 -2 165 -10
80z"/>
<path d="M5490 1270 c0 -35 3 -61 6 -58 7 8 7 108 0 115 -3 4 -6 -22 -6 -57z"/>
<path d="M5480 1003 c0 -21 3 -24 9 -14 5 8 7 20 4 28 -8 21 -13 15 -13 -14z"/>
<path d="M5473 770 c0 -47 2 -66 4 -42 2 23 2 61 0 85 -2 23 -4 4 -4 -43z"/>
<path d="M5829 598 c-2 -24 -1 -61 2 -83 5 -29 7 -18 8 43 1 87 -5 110 -10 40z"/>
<path d="M5460 516 c0 -31 6 -34 13 -6 3 11 1 23 -4 26 -5 3 -9 -6 -9 -20z"/>
<path d="M5832 450 c0 -14 2 -19 5 -12 2 6 2 18 0 25 -3 6 -5 1 -5 -13z"/>
<path d="M5453 295 c0 -44 2 -61 4 -37 2 23 2 59 0 80 -2 20 -4 1 -4 -43z"/>
<path d="M5837 98 c-3 -12 -2 -29 3 -37 7 -12 9 -6 10 22 0 42 -5 48 -13 15z"/>
<path d="M5440 40 c0 -19 3 -21 12 -12 9 9 9 15 0 24 -9 9 -12 7 -12 -12z"/>
</g>
</svg>
